<?xml version="1.0" encoding="UTF-8"?><!DOCTYPE svg PUBLIC "-//W3C//DTD SVG 1.1//EN" "http://www.w3.org/Graphics/SVG/1.1/DTD/svg11.dtd"><svg xmlns="http://www.w3.org/2000/svg" xmlns:xlink="http://www.w3.org/1999/xlink"><symbol id="sprite"><symbol id="sprite"><symbol id="Facebook"><path d="M15.398.006L11.56 0C7.248 0 4.462 2.994 4.462 7.63v3.517H.603c-.333 0-.603.283-.603.632v5.097c0 .349.27.632.603.632h3.859v12.86c0 .35.27.632.603.632H10.1c.333 0 .603-.283.603-.632v-12.86h4.512c.333 0 .603-.283.603-.632l.002-5.097a.649.649 0 00-.177-.447.59.59 0 00-.427-.185h-4.513V8.165c0-1.433.326-2.16 2.109-2.16l2.585-.002c.333 0 .603-.283.603-.632V.639c0-.35-.27-.632-.602-.633z" fill="#fff"/></symbol><symbol id="Twitter"><path d="M30 3.889a11.982 11.982 0 01-3.534 1.001 6.353 6.353 0 002.705-3.516 12.167 12.167 0 01-3.91 1.544A6.046 6.046 0 0020.769.91c-3.398 0-6.154 2.847-6.154 6.357 0 .498.054.984.16 1.45C9.66 8.45 5.124 5.918 2.09 2.071a6.473 6.473 0 00-.832 3.196c0 2.207 1.087 4.153 2.737 5.292a6.004 6.004 0 01-2.788-.798v.08c0 3.08 2.122 5.65 4.936 6.235a6.043 6.043 0 01-1.621.223c-.398 0-.782-.04-1.159-.118.784 2.528 3.056 4.366 5.748 4.417a12.097 12.097 0 01-7.643 2.717c-.497 0-.986-.03-1.468-.087a16.991 16.991 0 009.433 2.861c11.321 0 17.51-9.69 17.51-18.092l-.021-.824A12.522 12.522 0 0030 3.89z" fill="#fff"/></symbol><symbol id="instagram"><path d="M22 0H10C4.478 0 0 4.478 0 10v12c0 5.522 4.478 10 10 10h12c5.522 0 10-4.478 10-10V10c0-5.522-4.478-10-10-10zm7 22c0 3.86-3.14 7-7 7H10c-3.86 0-7-3.14-7-7V10c0-3.86 3.14-7 7-7h12c3.86 0 7 3.14 7 7v12z" fill="#fff"/><path d="M16 8a8 8 0 100 16 8 8 0 000-16zm0 13c-2.756 0-5-2.244-5-5 0-2.758 2.244-5 5-5s5 2.242 5 5c0 2.756-2.244 5-5 5zm8.6-12.534a1.066 1.066 0 100-2.132 1.066 1.066 0 000 2.132z" fill="#fff"/></symbol></symbol><symbol id="Facebook"><path d="M15.398.006L11.56 0C7.248 0 4.462 2.994 4.462 7.63v3.517H.603c-.333 0-.603.283-.603.632v5.097c0 .349.27.632.603.632h3.859v12.86c0 .35.27.632.603.632H10.1c.333 0 .603-.283.603-.632v-12.86h4.512c.333 0 .603-.283.603-.632l.002-5.097a.649.649 0 00-.177-.447.59.59 0 00-.427-.185h-4.513V8.165c0-1.433.326-2.16 2.109-2.16l2.585-.002c.333 0 .603-.283.603-.632V.639c0-.35-.27-.632-.602-.633z" fill="#fff"/></symbol><symbol id="Twitter"><path d="M30 3.889a11.982 11.982 0 01-3.534 1.001 6.353 6.353 0 002.705-3.516 12.167 12.167 0 01-3.91 1.544A6.046 6.046 0 0020.769.91c-3.398 0-6.154 2.847-6.154 6.357 0 .498.054.984.16 1.45C9.66 8.45 5.124 5.918 2.09 2.071a6.473 6.473 0 00-.832 3.196c0 2.207 1.087 4.153 2.737 5.292a6.004 6.004 0 01-2.788-.798v.08c0 3.08 2.122 5.65 4.936 6.235a6.043 6.043 0 01-1.621.223c-.398 0-.782-.04-1.159-.118.784 2.528 3.056 4.366 5.748 4.417a12.097 12.097 0 01-7.643 2.717c-.497 0-.986-.03-1.468-.087a16.991 16.991 0 009.433 2.861c11.321 0 17.51-9.69 17.51-18.092l-.021-.824A12.522 12.522 0 0030 3.89z" fill="#fff"/></symbol><symbol id="instagram"><path d="M22 0H10C4.478 0 0 4.478 0 10v12c0 5.522 4.478 10 10 10h12c5.522 0 10-4.478 10-10V10c0-5.522-4.478-10-10-10zm7 22c0 3.86-3.14 7-7 7H10c-3.86 0-7-3.14-7-7V10c0-3.86 3.14-7 7-7h12c3.86 0 7 3.14 7 7v12z" fill="#fff"/><path d="M16 8a8 8 0 100 16 8 8 0 000-16zm0 13c-2.756 0-5-2.244-5-5 0-2.758 2.244-5 5-5s5 2.242 5 5c0 2.756-2.244 5-5 5zm8.6-12.534a1.066 1.066 0 100-2.132 1.066 1.066 0 000 2.132z" fill="#fff"/></symbol></symbol><symbol id="Facebook"><path d="M15.398.006L11.56 0C7.248 0 4.462 2.994 4.462 7.63v3.517H.603c-.333 0-.603.283-.603.632v5.097c0 .349.27.632.603.632h3.859v12.86c0 .35.27.632.603.632H10.1c.333 0 .603-.283.603-.632v-12.86h4.512c.333 0 .603-.283.603-.632l.002-5.097a.649.649 0 00-.177-.447.59.59 0 00-.427-.185h-4.513V8.165c0-1.433.326-2.16 2.109-2.16l2.585-.002c.333 0 .603-.283.603-.632V.639c0-.35-.27-.632-.602-.633z" fill="#fff"/></symbol><symbol id="Instagram"><path d="M22 0H10C4.478 0 0 4.478 0 10v12c0 5.522 4.478 10 10 10h12c5.522 0 10-4.478 10-10V10c0-5.522-4.478-10-10-10zm7 22c0 3.86-3.14 7-7 7H10c-3.86 0-7-3.14-7-7V10c0-3.86 3.14-7 7-7h12c3.86 0 7 3.14 7 7v12z" fill="#fff"/><path d="M16 8a8 8 0 100 16 8 8 0 000-16zm0 13c-2.756 0-5-2.244-5-5 0-2.758 2.244-5 5-5s5 2.242 5 5c0 2.756-2.244 5-5 5zm8.6-12.534a1.066 1.066 0 100-2.132 1.066 1.066 0 000 2.132z" fill="#fff"/></symbol><symbol id="Twitter"><path d="M30 3.889a11.982 11.982 0 01-3.534 1.001 6.353 6.353 0 002.705-3.516 12.167 12.167 0 01-3.91 1.544A6.046 6.046 0 0020.769.91c-3.398 0-6.154 2.847-6.154 6.357 0 .498.054.984.16 1.45C9.66 8.45 5.124 5.918 2.09 2.071a6.473 6.473 0 00-.832 3.196c0 2.207 1.087 4.153 2.737 5.292a6.004 6.004 0 01-2.788-.798v.08c0 3.08 2.122 5.65 4.936 6.235a6.043 6.043 0 01-1.621.223c-.398 0-.782-.04-1.159-.118.784 2.528 3.056 4.366 5.748 4.417a12.097 12.097 0 01-7.643 2.717c-.497 0-.986-.03-1.468-.087a16.991 16.991 0 009.433 2.861c11.321 0 17.51-9.69 17.51-18.092l-.021-.824A12.522 12.522 0 0030 3.89z" fill="#fff"/></symbol></svg>